<svg width="50" height="50" viewBox="0 0 50 50" fill="none" xmlns="http://www.w3.org/2000/svg">
<circle cx="25" cy="25" r="25" fill="#F12E6D"/>
<path d="M16.25 37.25H33.75V32.875C33.7481 31.2511 33.1022 29.6943 31.954 28.546C30.8057 27.3978 29.2489 26.7519 27.625 26.75H22.375C20.7511 26.7519 19.1943 27.3978 18.046 28.546C16.8978 29.6943 16.2519 31.2511 16.25 32.875V37.25Z" fill="white"/>
<path d="M18.875 18.875C18.875 20.0864 19.2342 21.2706 19.9072 22.2779C20.5803 23.2851 21.5369 24.0702 22.6561 24.5338C23.7753 24.9974 25.0068 25.1186 26.1949 24.8823C27.3831 24.646 28.4744 24.0626 29.331 23.206C30.1876 22.3494 30.771 21.2581 31.0073 20.0699C31.2436 18.8818 31.1224 17.6503 30.6588 16.5311C30.1952 15.4119 29.4101 14.4553 28.4029 13.7822C27.3956 13.1092 26.2114 12.75 25 12.75C23.3755 12.75 21.8176 13.3953 20.669 14.544C19.5203 15.6926 18.875 17.2505 18.875 18.875Z" fill="white"/>
</svg>
