<svg width="75" height="85" viewBox="0 0 75 85" fill="none" xmlns="http://www.w3.org/2000/svg">
<path d="M66.9643 37.1875H62.9464V25.2344C62.9464 11.3223 51.529 0 37.5 0C23.471 0 12.0536 11.3223 12.0536 25.2344V37.1875H8.03571C3.59933 37.1875 0 40.7568 0 45.1562V77.0312C0 81.4307 3.59933 85 8.03571 85H66.9643C71.4007 85 75 81.4307 75 77.0312V45.1562C75 40.7568 71.4007 37.1875 66.9643 37.1875ZM49.5536 37.1875H25.4464V25.2344C25.4464 18.6436 30.8538 13.2812 37.5 13.2812C44.1462 13.2812 49.5536 18.6436 49.5536 25.2344V37.1875Z" fill="#F2F2F2"/>
</svg>
