<svg width="176" height="176" viewBox="0 0 176 176" fill="none" xmlns="http://www.w3.org/2000/svg">
<g clip-path="url(#clip0_1401_890)">
<path fill-rule="evenodd" clip-rule="evenodd" d="M114.297 20.218C117.048 17.4685 120.778 15.9238 124.667 15.9238C128.556 15.9238 132.286 17.4685 135.036 20.218L155.782 40.964C158.532 43.7144 160.076 47.4443 160.076 51.3334C160.076 55.2224 158.532 58.9523 155.782 61.7027L135.036 82.4487C132.286 85.1983 128.556 86.7429 124.667 86.7429C120.778 86.7429 117.048 85.1983 114.297 82.4487L93.5513 61.7027C90.8018 58.9523 89.2571 55.2224 89.2571 51.3334C89.2571 47.4443 90.8018 43.7144 93.5513 40.964L114.297 20.218ZM124.667 30.5947L103.928 51.3334L124.667 72.072L145.405 51.3334L124.667 30.5947ZM66 22C69.8898 22 73.6204 23.5453 76.3709 26.2958C79.1214 29.0463 80.6667 32.7769 80.6667 36.6667V66C80.6667 69.8899 79.1214 73.6204 76.3709 76.3709C73.6204 79.1215 69.8898 80.6667 66 80.6667H36.6667C32.7768 80.6667 29.0463 79.1215 26.2958 76.3709C23.5452 73.6204 22 69.8899 22 66V36.6667C22 32.7769 23.5452 29.0463 26.2958 26.2958C29.0463 23.5453 32.7768 22 36.6667 22H66ZM66 36.6667H36.6667V66H66V36.6667ZM154 110C154 106.11 152.455 102.38 149.704 99.6291C146.954 96.8786 143.223 95.3334 139.333 95.3334H110C106.11 95.3334 102.38 96.8786 99.6291 99.6291C96.8786 102.38 95.3333 106.11 95.3333 110V139.333C95.3333 143.223 96.8786 146.954 99.6291 149.704C102.38 152.455 106.11 154 110 154H139.333C143.223 154 146.954 152.455 149.704 149.704C152.455 146.954 154 143.223 154 139.333V110ZM139.333 110V139.333H110V110H139.333ZM66 95.3334C69.8898 95.3334 73.6204 96.8786 76.3709 99.6291C79.1214 102.38 80.6667 106.11 80.6667 110V139.333C80.6667 143.223 79.1214 146.954 76.3709 149.704C73.6204 152.455 69.8898 154 66 154H36.6667C32.7768 154 29.0463 152.455 26.2958 149.704C23.5452 146.954 22 143.223 22 139.333V110C22 106.11 23.5452 102.38 26.2958 99.6291C29.0463 96.8786 32.7768 95.3334 36.6667 95.3334H66ZM66 110H36.6667V139.333H66V110Z" fill="#ED7B7B"/>
</g>
<defs>
<clipPath id="clip0_1401_890">
<rect width="176" height="176" fill="white"/>
</clipPath>
</defs>
</svg>
