<svg width="121" height="141" viewBox="0 0 121 141" fill="none" xmlns="http://www.w3.org/2000/svg">
<path d="M94.61 61.6875C97.0783 62.4219 99.4285 63.4185 101.66 64.6775C103.892 65.9364 106.229 67.851 108.672 70.4213C111.114 72.9916 113.201 76.0209 114.934 79.5092C116.667 82.9975 118.112 87.5086 119.267 93.0427C120.422 98.5767 121 104.78 121 111.651C121 119.729 118.374 126.64 113.122 132.384C107.871 138.128 101.542 141 94.1374 141H26.8626C19.4577 141 13.1293 138.128 7.8776 132.384C2.62587 126.64 0 119.729 0 111.651C0 104.78 0.577691 98.5767 1.73307 93.0427C2.88845 87.5086 4.33268 82.9975 6.06576 79.5092C7.79883 76.0209 9.88639 72.9916 12.3285 70.4213C14.7705 67.851 17.1075 65.9364 19.3395 64.6775C21.5715 63.4185 23.9217 62.4219 26.39 61.6875C22.2411 55.1306 20.1667 47.9967 20.1667 40.2857C20.1667 34.8304 21.2301 29.6242 23.3571 24.6671C25.484 19.7101 28.3594 15.4219 31.9831 11.8025C35.6068 8.18304 39.9001 5.3111 44.863 3.18666C49.8258 1.06222 55.0382 0 60.5 0C65.9618 0 71.1742 1.06222 76.137 3.18666C81.0999 5.3111 85.3932 8.18304 89.0169 11.8025C92.6406 15.4219 95.5159 19.7101 97.6429 24.6671C99.7699 29.6242 100.833 34.8304 100.833 40.2857C100.833 47.9967 98.7589 55.1306 94.61 61.6875ZM60.5 10.0714C52.1497 10.0714 45.0205 13.022 39.1123 18.9233C33.2041 24.8245 30.25 31.9453 30.25 40.2857C30.25 48.6261 33.2041 55.7469 39.1123 61.6482C45.0205 67.5494 52.1497 70.5 60.5 70.5C68.8503 70.5 75.9795 67.5494 81.8877 61.6482C87.7959 55.7469 90.75 48.6261 90.75 40.2857C90.75 31.9453 87.7959 24.8245 81.8877 18.9233C75.9795 13.022 68.8503 10.0714 60.5 10.0714ZM94.1374 130.929C98.7589 130.929 102.711 129.053 105.993 125.303C109.275 121.552 110.917 117.002 110.917 111.651C110.917 99.1144 108.855 89.2266 104.733 81.9877C100.61 74.7489 94.6888 70.9459 86.9687 70.5787C79.3537 77.2405 70.5308 80.5714 60.5 80.5714C50.4692 80.5714 41.6463 77.2405 34.0312 70.5787C26.3112 70.9459 20.3899 74.7489 16.2673 81.9877C12.1446 89.2266 10.0833 99.1144 10.0833 111.651C10.0833 117.002 11.7245 121.552 15.0068 125.303C18.2892 129.053 22.2411 130.929 26.8626 130.929H94.1374Z" fill="#F12E6D"/>
</svg>
