<svg width="191" height="179" viewBox="0 0 191 179" fill="none" xmlns="http://www.w3.org/2000/svg">
<path d="M47.4 132.057C41.1939 132.057 35.2421 129.75 30.8537 125.644C26.4653 121.537 24 115.968 24 110.161V52.8956C24 47.0885 26.4653 41.5193 30.8537 37.4131C35.2421 33.3069 41.1939 31 47.4 31H144.6C147.673 31 150.716 31.5663 153.555 32.6667C156.394 33.7671 158.973 35.3799 161.146 37.4131C163.319 39.4463 165.043 41.86 166.219 44.5165C167.395 47.173 168 50.0202 168 52.8956V110.161C168 113.036 167.395 115.884 166.219 118.54C165.043 121.197 163.319 123.61 161.146 125.644C158.973 127.677 156.394 129.29 153.555 130.39C150.716 131.49 147.673 132.057 144.6 132.057H103.286L67.2 157.321C65.8628 158.257 64.2736 158.827 62.6101 158.966C60.9465 159.106 59.2744 158.809 57.7807 158.11C56.287 157.411 55.0306 156.337 54.1523 155.007C53.2739 153.678 52.8082 152.146 52.8072 150.584V132.057H47.4ZM99.7008 121.951H144.6C147.942 121.951 151.147 120.709 153.51 118.498C155.872 116.287 157.2 113.288 157.2 110.161V52.8956C157.2 49.7687 155.872 46.7699 153.51 44.5589C151.147 42.3478 147.942 41.1057 144.6 41.1057H47.4C44.0583 41.1057 40.8534 42.3478 38.4905 44.5589C36.1275 46.7699 34.8 49.7687 34.8 52.8956V110.161C34.8 116.669 40.4448 121.951 47.4 121.951H63.5928V147.215L99.7008 121.951Z" fill="#27AE60"/>
</svg>
