<svg width="154" height="154" viewBox="0 0 154 154" fill="none" xmlns="http://www.w3.org/2000/svg">
<path d="M25.6988 102.667V25.6667H12.8655V12.8334H32.1155C33.8173 12.8334 35.4494 13.5094 36.6527 14.7128C37.8561 15.9161 38.5321 17.5482 38.5321 19.25V96.25H118.343L131.176 44.9167H51.3655V32.0834H139.402C140.378 32.0834 141.34 32.3058 142.217 32.7336C143.093 33.1615 143.861 33.7835 144.461 34.5524C145.061 35.3214 145.478 36.217 145.68 37.1712C145.882 38.1254 145.863 39.1132 145.626 40.0593L129.585 104.226C129.237 105.614 128.436 106.845 127.308 107.725C126.18 108.605 124.791 109.083 123.36 109.083H32.1091C30.4073 109.083 28.7751 108.407 27.5718 107.204C26.3684 106.001 25.6988 104.369 25.6988 102.667ZM38.5321 147.583C35.1285 147.583 31.8643 146.231 29.4576 143.825C27.0509 141.418 25.6988 138.154 25.6988 134.75C25.6988 131.346 27.0509 128.082 29.4576 125.676C31.8643 123.269 35.1285 121.917 38.5321 121.917C41.9358 121.917 45.2 123.269 47.6067 125.676C50.0134 128.082 51.3655 131.346 51.3655 134.75C51.3655 138.154 50.0134 141.418 47.6067 143.825C45.2 146.231 41.9358 147.583 38.5321 147.583ZM115.532 147.583C112.129 147.583 108.864 146.231 106.458 143.825C104.051 141.418 102.699 138.154 102.699 134.75C102.699 131.346 104.051 128.082 106.458 125.676C108.864 123.269 112.129 121.917 115.532 121.917C118.936 121.917 122.2 123.269 124.607 125.676C127.013 128.082 128.365 131.346 128.365 134.75C128.365 138.154 127.013 141.418 124.607 143.825C122.2 146.231 118.936 147.583 115.532 147.583Z" fill="#474E95"/>
</svg>
