<svg width="44" height="55" viewBox="0 0 44 55" fill="none" xmlns="http://www.w3.org/2000/svg">
<g filter="url(#filter0_d)">
<path d="M6 7.37509C6 5.94953 6.5619 4.58235 7.5621 3.57433C8.56229 2.5663 9.91885 2 11.3333 2H32.6667C34.0812 2 35.4377 2.5663 36.4379 3.57433C37.4381 4.58235 38 5.94953 38 7.37509V43.6569C37.9999 43.9 37.9343 44.1385 37.8104 44.347C37.6864 44.5555 37.5086 44.7262 37.296 44.8409C37.0834 44.9556 36.8439 45.0101 36.603 44.9985C36.3621 44.9869 36.1288 44.9096 35.928 44.7749L22 37.2095L8.072 44.7749C7.87121 44.9096 7.63795 44.9869 7.39704 44.9985C7.15614 45.0101 6.91662 44.9556 6.704 44.8409C6.49138 44.7262 6.31361 44.5555 6.18964 44.347C6.06566 44.1385 6.00012 43.9 6 43.6569V7.37509ZM11.3333 4.68754C10.6261 4.68754 9.94781 4.97069 9.44772 5.47471C8.94762 5.97872 8.66667 6.66231 8.66667 7.37509V41.1468L21.2613 34.4763C21.4802 34.3295 21.7371 34.2512 22 34.2512C22.2629 34.2512 22.5198 34.3295 22.7387 34.4763L35.3333 41.1468V7.37509C35.3333 6.66231 35.0524 5.97872 34.5523 5.47471C34.0522 4.97069 33.3739 4.68754 32.6667 4.68754H11.3333Z" fill="#474E95"/>
<path d="M8.5064 23.795L24.2873 32.9775L8.5064 42.1599V23.795Z" fill="#474E95"/>
<path d="M20.8899 35.0062L36.0608 24.8329L37.2172 43.1608L20.8899 35.0062Z" fill="#474E95"/>
<path d="M7.6732 4.52945H36.1176V34.8829H7.6732V4.52945Z" fill="#474E95"/>
</g>
<path d="M20.0045 25.3887L14.9913 20.4036C14.9623 20.3748 14.9394 20.3406 14.9237 20.303C14.9081 20.2653 14.9 20.225 14.9 20.1842C14.9 20.1434 14.9081 20.103 14.9237 20.0654C14.9394 20.0277 14.9623 19.9936 14.9913 19.9648L16.2569 18.6978C16.3778 18.5768 16.5733 18.5768 16.6942 18.6978L19.9947 21.9786C20.1156 22.0995 20.3125 22.0981 20.4334 21.9772L27.7263 14.614C27.8472 14.4917 28.0441 14.4917 28.1664 14.6126L29.4334 15.8797C29.5544 16.0006 29.5544 16.1961 29.4348 16.317L21.4895 24.334L21.4909 24.3354L20.4433 25.3887C20.3223 25.5097 20.1255 25.5097 20.0045 25.3887Z" fill="#FFFCFC" stroke="white" stroke-width="0.75" stroke-miterlimit="10"/>
<defs>
<filter id="filter0_d" x="0" y="0" width="44" height="55" filterUnits="userSpaceOnUse" color-interpolation-filters="sRGB">
<feFlood flood-opacity="0" result="BackgroundImageFix"/>
<feColorMatrix in="SourceAlpha" type="matrix" values="0 0 0 0 0 0 0 0 0 0 0 0 0 0 0 0 0 0 127 0"/>
<feOffset dy="4"/>
<feGaussianBlur stdDeviation="3"/>
<feColorMatrix type="matrix" values="0 0 0 0 0 0 0 0 0 0 0 0 0 0 0 0 0 0 0.06 0"/>
<feBlend mode="normal" in2="BackgroundImageFix" result="effect1_dropShadow"/>
<feBlend mode="normal" in="SourceGraphic" in2="effect1_dropShadow" result="shape"/>
</filter>
</defs>
</svg>
