<svg width="33" height="43" viewBox="0 0 33 43" fill="none" xmlns="http://www.w3.org/2000/svg">
<path d="M0.773193 5.37509C0.773193 3.94953 1.33719 2.58235 2.3411 1.57433C3.34501 0.566302 4.70661 0 6.12635 0L27.539 0C28.9587 0 30.3203 0.566302 31.3242 1.57433C32.3282 2.58235 32.8922 3.94953 32.8922 5.37509V41.6569C32.892 41.9 32.8262 42.1385 32.7018 42.347C32.5774 42.5555 32.3989 42.7262 32.1855 42.8409C31.9721 42.9556 31.7317 43.0101 31.4899 42.9985C31.2481 42.9869 31.014 42.9096 30.8124 42.7749L16.8327 35.2095L2.8529 42.7749C2.65136 42.9096 2.41723 42.9869 2.17543 42.9985C1.93363 43.0101 1.69322 42.9556 1.47981 42.8409C1.2664 42.7262 1.08797 42.5555 0.963536 42.347C0.839102 42.1385 0.773318 41.9 0.773193 41.6569V5.37509ZM6.12635 2.68754C5.41648 2.68754 4.73568 2.97069 4.23373 3.47471C3.73177 3.97872 3.44977 4.66231 3.44977 5.37509V39.1468L16.0913 32.4763C16.3109 32.3295 16.5688 32.2512 16.8327 32.2512C17.0965 32.2512 17.3544 32.3295 17.5741 32.4763L30.2156 39.1468V5.37509C30.2156 4.66231 29.9336 3.97872 29.4316 3.47471C28.9297 2.97069 28.2489 2.68754 27.539 2.68754H6.12635Z" fill="#474E95"/>
</svg>
